<svg width="190" height="190" viewBox="0 0 190 190" fill="none" xmlns="http://www.w3.org/2000/svg">
<circle cx="95" cy="95" r="93.5" stroke="url(#paint0_linear_199_472)" stroke-width="3"/>
<path d="M96.1719 113.062V115.062H98.1901L98.1718 113.044L96.1719 113.062ZM89.4219 113.062L87.4219 113.05L87.409 115.062H89.4219V113.062ZM89.6094 103.969L87.6198 103.765L87.6174 103.788L87.6156 103.811L89.6094 103.969ZM90.6406 100.359L92.4481 101.216L92.4524 101.207L92.4565 101.197L90.6406 100.359ZM92.5156 97.5469L93.8966 98.9936L93.8981 98.9922L92.5156 97.5469ZM97.5312 94.3125L98.5078 96.0579L98.509 96.0572L97.5312 94.3125ZM103.391 90.6094L104.662 92.1532L104.667 92.1494L103.391 90.6094ZM106.203 86.9062L104.421 85.9979L104.418 86.0048L104.414 86.0118L106.203 86.9062ZM103.531 73.3125L102.289 74.8798L102.298 74.8871L103.531 73.3125ZM79.9062 84.0938L79.4863 86.0492L81.4891 86.4793L81.8712 84.4667L79.9062 84.0938ZM72.9219 82.5938L70.9556 82.2278L70.5997 84.1406L72.5019 84.5492L72.9219 82.5938ZM109.953 68.8594L108.62 70.3502L108.627 70.3562L109.953 68.8594ZM103.719 98.6719L102.797 96.8971L102.787 96.9024L103.719 98.6719ZM97.2969 103.031L98.8911 104.239L98.8997 104.228L98.9082 104.216L97.2969 103.031ZM96.125 107.906H94.125V107.915L94.1251 107.924L96.125 107.906ZM97.7656 119.766H99.7656V117.766H97.7656V119.766ZM97.7656 129V131H99.7656V129H97.7656ZM88.2969 129H86.2969V131H88.2969V129ZM88.2969 119.766V117.766H86.2969V119.766H88.2969ZM96.1719 111.062H89.4219V115.062H96.1719V111.062ZM91.4218 113.075C91.4533 108.172 91.5164 105.225 91.6032 104.126L87.6156 103.811C87.5148 105.088 87.453 108.203 87.4219 113.05L91.4218 113.075ZM91.5989 104.173C91.6991 103.196 91.9758 102.213 92.4481 101.216L88.8331 99.5032C88.1804 100.881 87.7696 102.304 87.6198 103.765L91.5989 104.173ZM92.4565 101.197C92.9538 100.12 93.4495 99.4204 93.8966 98.9936L91.1347 96.1002C90.2068 96.9859 89.4525 98.1611 88.8247 99.5213L92.4565 101.197ZM93.8981 98.9922C94.4019 98.5103 95.8428 97.549 98.5078 96.0579L96.5547 92.5671C93.9697 94.0135 92.0669 95.2085 91.1332 96.1016L93.8981 98.9922ZM98.509 96.0572C101.355 94.4624 103.448 93.1529 104.662 92.1532L102.119 89.0655C101.208 89.8158 99.3954 90.9751 96.5535 92.5678L98.509 96.0572ZM104.667 92.1494C106.018 91.0301 107.114 89.556 107.992 87.8007L104.414 86.0118C103.729 87.3815 102.951 88.3761 102.115 89.0693L104.667 92.1494ZM107.985 87.8146C108.948 85.9259 109.422 83.8782 109.422 81.7031H105.422C105.422 83.278 105.083 84.6991 104.421 85.9979L107.985 87.8146ZM109.422 81.7031C109.422 77.5833 107.886 74.1824 104.764 71.7379L102.298 74.8871C104.364 76.5051 105.422 78.6979 105.422 81.7031H109.422ZM104.774 71.7452C101.832 69.4133 98.3546 68.2656 94.4375 68.2656V72.2656C97.5204 72.2656 100.106 73.1492 102.289 74.8798L104.774 71.7452ZM94.4375 68.2656C90.0578 68.2656 86.3346 69.5505 83.4728 72.2738C80.6476 74.9624 78.8638 78.8611 77.9413 83.7208L81.8712 84.4667C82.6987 80.1076 84.2118 77.0923 86.2303 75.1715C88.2123 73.2854 90.8797 72.2656 94.4375 72.2656V68.2656ZM80.3262 82.1383L73.3418 80.6383L72.5019 84.5492L79.4863 86.0492L80.3262 82.1383ZM74.8881 82.9597C76.0043 76.9621 78.2529 72.7067 81.459 69.9399C84.6545 67.1824 89.0336 65.7031 94.8125 65.7031V61.7031C88.3414 61.7031 82.9471 63.3723 78.8457 66.9116C74.7549 70.4418 72.1832 75.6317 70.9556 82.2278L74.8881 82.9597ZM94.8125 65.7031C100.68 65.7031 105.217 67.3069 108.62 70.3502L111.286 67.3686C107.002 63.5369 101.445 61.7031 94.8125 61.7031V65.7031ZM108.627 70.3562C112.023 73.3657 113.719 77.1866 113.719 81.9844H117.719C117.719 76.0947 115.571 71.1655 111.28 67.3625L108.627 70.3562ZM113.719 81.9844C113.719 87.9803 110.363 92.9663 102.797 96.8971L104.641 100.447C113.075 96.0649 117.719 89.9259 117.719 81.9844H113.719ZM102.787 96.9024C101.001 97.8429 99.5199 98.7058 98.365 99.4898C97.2514 100.246 96.2858 101.03 95.6856 101.846L98.9082 104.216C99.0892 103.97 99.5845 103.497 100.612 102.799C101.597 102.13 102.936 101.345 104.651 100.441L102.787 96.9024ZM95.7027 101.824C94.5281 103.374 94.125 105.532 94.125 107.906H98.125C98.125 105.843 98.5032 104.751 98.8911 104.239L95.7027 101.824ZM94.1251 107.924L94.172 113.081L98.1718 113.044L98.1249 107.888L94.1251 107.924ZM95.7656 119.766V129H99.7656V119.766H95.7656ZM97.7656 127H88.2969V131H97.7656V127ZM90.2969 129V119.766H86.2969V129H90.2969ZM88.2969 121.766H97.7656V117.766H88.2969V121.766Z" fill="#704EF4"/>
<defs>
<linearGradient id="paint0_linear_199_472" x1="95" y1="0" x2="95" y2="190" gradientUnits="userSpaceOnUse">
<stop stop-color="#704EF4"/>
<stop offset="1" stop-color="#FF2CDF"/>
</linearGradient>
</defs>
</svg>
