<svg width="256" height="101" viewBox="0 0 256 101" fill="none" xmlns="http://www.w3.org/2000/svg">
<path d="M73.4023 50.7675H60.3359L58.2266 63.3846H54.9648L59.418 36.7245H62.6797L60.8047 47.9354H73.8711L75.7461 36.7245H79.0078L74.5352 63.3846H71.293L73.4023 50.7675ZM97.0039 55.5721H87.2773L83.4492 63.3846H80.4219L93.4883 36.7245H97.1797L101.828 63.3846H98.3906L97.0039 55.5721ZM96.6133 52.8964L94.5625 40.6503L88.5469 52.8964H96.6133ZM120.273 63.3846L122.402 50.6112C120.085 53.0591 117.363 54.2831 114.238 54.2831C112.103 54.2831 110.449 53.7297 109.277 52.6229C108.118 51.5162 107.539 49.9732 107.539 47.994C107.539 47.4471 107.63 46.6268 107.812 45.5331L109.277 36.7245H112.539L111.016 45.8065C110.885 46.6008 110.82 47.2388 110.82 47.7206C110.82 48.8664 111.178 49.7974 111.895 50.5135C112.624 51.2297 113.763 51.5878 115.312 51.5878C118.255 51.5878 120.749 50.494 122.793 48.3065L124.727 36.7245H127.988L123.535 63.3846H120.273ZM145.965 55.5721H136.238L132.41 63.3846H129.383L142.449 36.7245H146.141L150.789 63.3846H147.352L145.965 55.5721ZM145.574 52.8964L143.523 40.6503L137.508 52.8964H145.574ZM174.078 39.4393H166.363L162.34 63.3846H159.098L163.102 39.4393H155.367L155.816 36.7245H174.547L174.078 39.4393ZM175.824 63.3846L180.277 36.7245H183.539L181.762 47.3885H187.172C189.086 47.3885 190.596 47.5774 191.703 47.955C192.81 48.3195 193.689 49.0292 194.34 50.0839C195.004 51.1255 195.336 52.4667 195.336 54.1073C195.336 56.6464 194.581 58.8274 193.07 60.6503C191.56 62.4732 189.027 63.3846 185.473 63.3846H175.824ZM179.555 60.5526H185.805C188.148 60.5526 189.757 59.9341 190.629 58.6971C191.514 57.4471 191.957 55.9888 191.957 54.3221C191.957 53.1633 191.671 52.1932 191.098 51.412C190.525 50.6177 189.171 50.2206 187.035 50.2206H181.273L179.555 60.5526Z" fill="url(#paint0_linear_202_675)"/>
<rect x="1.5" y="1.5" width="253" height="97.7783" rx="48.8891" stroke="url(#paint1_linear_202_675)" stroke-width="3"/>
<defs>
<linearGradient id="paint0_linear_202_675" x1="128" y1="39.3846" x2="128" y2="62.5521" gradientUnits="userSpaceOnUse">
<stop stop-color="#2CFFFF"/>
<stop offset="1" stop-color="#704EF4"/>
</linearGradient>
<linearGradient id="paint1_linear_202_675" x1="128" y1="0" x2="128" y2="100.778" gradientUnits="userSpaceOnUse">
<stop stop-color="#2CFFFF"/>
<stop offset="1" stop-color="#704EF4"/>
</linearGradient>
</defs>
</svg>
