<svg width="180" height="30" viewBox="0 0 180 30" fill="none" xmlns="http://www.w3.org/2000/svg">
<g clip-path="url(#clip0_353_27)">
<path d="M0.902344 21.5977L3.94922 20.9141C4.40495 24.8724 6.71615 26.8516 10.8828 26.8516C13.1354 26.8516 14.8477 26.2721 16.0195 25.1133C17.2044 23.9414 17.7969 22.5417 17.7969 20.9141C17.7969 19.4427 17.3151 18.3424 16.3516 17.6133C15.388 16.8711 13.7409 16.5 11.4102 16.5H9.86719L10.3359 13.6875H12.582C14.3398 13.6875 15.7591 13.2122 16.8398 12.2617C17.9206 11.2982 18.4609 10.0612 18.4609 8.55078C18.4609 7.26172 17.9987 6.26562 17.0742 5.5625C16.1497 4.84635 14.8281 4.48828 13.1094 4.48828C11.0391 4.48828 9.48958 4.90495 8.46094 5.73828C7.43229 6.55859 6.67057 7.84115 6.17578 9.58594L3.07031 9.19531C3.83854 6.4349 5.04948 4.51432 6.70312 3.43359C8.36979 2.33984 10.5443 1.79297 13.2266 1.79297C16 1.79297 18.1484 2.3724 19.6719 3.53125C21.1953 4.67708 21.957 6.23958 21.957 8.21875C21.957 11.6302 19.9128 13.8568 15.8242 14.8984C19.4701 15.3802 21.293 17.2552 21.293 20.5234C21.293 23.1276 20.375 25.2826 18.5391 26.9883C16.7161 28.681 14.112 29.5273 10.7266 29.5273C4.65885 29.5273 1.38411 26.8841 0.902344 21.5977ZM40.5781 21.1875H30.8516L27.0234 29H23.9961L37.0625 2.33984H40.7539L45.4023 29H41.9648L40.5781 21.1875ZM40.1875 18.5117L38.1367 6.26562L32.1211 18.5117H40.1875ZM51.0938 26.168L62.207 2.33984H67.5586L70.957 26.168H72.9492L71.543 34.6055H68.9258L69.4727 29H51.6406L50.3125 34.6055H47.7148L49.1211 26.168H51.0938ZM54.2969 26.168H67.6953L65 5.03516H63.6133L54.2969 26.168ZM91.8047 21.1875H82.0781L78.25 29H75.2227L88.2891 2.33984H91.9805L96.6289 29H93.1914L91.8047 21.1875ZM91.4141 18.5117L89.3633 6.26562L83.3477 18.5117H91.4141ZM121.031 16.3828H107.965L105.855 29H102.594L107.047 2.33984H110.309L108.434 13.5508H121.5L123.375 2.33984H126.637L122.164 29H118.922L121.031 16.3828ZM134.457 26.793L134.105 29H130.844L135.297 2.33984H138.559L135.941 18.0039C135.668 19.6185 135.297 21.3958 134.828 23.3359C136.417 21.0312 137.875 19.1693 139.203 17.75L151.352 4.91797L151.781 2.33984H155.023L150.57 29H147.309L149.867 13.707C150.232 11.5977 150.603 9.82031 150.98 8.375C149.366 10.7188 147.908 12.5807 146.605 13.9609L134.457 26.793ZM159.25 29L163.703 2.33984H180.324L179.875 4.99609H166.516L165.051 13.7461H176.496L176.047 16.3828H164.621L162.98 26.168H177.395L176.926 29H159.25Z" fill="url(#paint0_linear_353_27)"/>
</g>
<defs>
<linearGradient id="paint0_linear_353_27" x1="90.5" y1="5" x2="90.5" y2="25" gradientUnits="userSpaceOnUse">
<stop stop-color="#2CFFFF"/>
<stop offset="1" stop-color="#704EF4"/>
</linearGradient>
<clipPath id="clip0_353_27">
<rect width="180" height="30" fill="white"/>
</clipPath>
</defs>
</svg>
