<svg width="216" height="34" viewBox="0 0 216 34" fill="none" xmlns="http://www.w3.org/2000/svg">
<path d="M0.902344 20.5977L3.94922 19.9141C4.40495 23.8724 6.71615 25.8516 10.8828 25.8516C13.1354 25.8516 14.8477 25.2721 16.0195 24.1133C17.2044 22.9414 17.7969 21.5417 17.7969 19.9141C17.7969 18.4427 17.3151 17.3424 16.3516 16.6133C15.388 15.8711 13.7409 15.5 11.4102 15.5H9.86719L10.3359 12.6875H12.582C14.3398 12.6875 15.7591 12.2122 16.8398 11.2617C17.9206 10.2982 18.4609 9.0612 18.4609 7.55078C18.4609 6.26172 17.9987 5.26562 17.0742 4.5625C16.1497 3.84635 14.8281 3.48828 13.1094 3.48828C11.0391 3.48828 9.48958 3.90495 8.46094 4.73828C7.43229 5.55859 6.67057 6.84115 6.17578 8.58594L3.07031 8.19531C3.83854 5.4349 5.04948 3.51432 6.70312 2.43359C8.36979 1.33984 10.5443 0.792969 13.2266 0.792969C16 0.792969 18.1484 1.3724 19.6719 2.53125C21.1953 3.67708 21.957 5.23958 21.957 7.21875C21.957 10.6302 19.9128 12.8568 15.8242 13.8984C19.4701 14.3802 21.293 16.2552 21.293 19.5234C21.293 22.1276 20.375 24.2826 18.5391 25.9883C16.7161 27.681 14.112 28.5273 10.7266 28.5273C4.65885 28.5273 1.38411 25.8841 0.902344 20.5977ZM40.5781 20.1875H30.8516L27.0234 28H23.9961L37.0625 1.33984H40.7539L45.4023 28H41.9648L40.5781 20.1875ZM40.1875 17.5117L38.1367 5.26562L32.1211 17.5117H40.1875ZM51.0938 25.168L62.207 1.33984H67.5586L70.957 25.168H72.9492L71.543 33.6055H68.9258L69.4727 28H51.6406L50.3125 33.6055H47.7148L49.1211 25.168H51.0938ZM54.2969 25.168H67.6953L65 4.03516H63.6133L54.2969 25.168ZM91.8047 20.1875H82.0781L78.25 28H75.2227L88.2891 1.33984H91.9805L96.6289 28H93.1914L91.8047 20.1875ZM91.4141 17.5117L89.3633 5.26562L83.3477 17.5117H91.4141ZM121.031 15.3828H107.965L105.855 28H102.594L107.047 1.33984H110.309L108.434 12.5508H121.5L123.375 1.33984H126.637L122.164 28H118.922L121.031 15.3828ZM134.457 25.793L134.105 28H130.844L135.297 1.33984H138.559L135.941 17.0039C135.668 18.6185 135.297 20.3958 134.828 22.3359C136.417 20.0312 137.875 18.1693 139.203 16.75L151.352 3.91797L151.781 1.33984H155.023L150.57 28H147.309L149.867 12.707C150.232 10.5977 150.603 8.82031 150.98 7.375C149.366 9.71875 147.908 11.5807 146.605 12.9609L134.457 25.793ZM159.25 28L163.703 1.33984H180.324L179.875 3.99609H166.516L165.051 12.7461H176.496L176.047 15.3828H164.621L162.98 25.168H177.395L176.926 28H159.25ZM194.91 22.0039L197.566 20.9688C198.947 24.3542 201.349 26.0469 204.773 26.0469C206.583 26.0469 208.113 25.513 209.363 24.4453C210.626 23.3646 211.258 22.0169 211.258 20.4023C211.258 19.1393 210.88 18.0846 210.125 17.2383C209.37 16.3789 208.484 15.8581 207.469 15.6758C206.453 15.4805 204.682 15.3828 202.156 15.3828L202.586 12.7461C203.641 12.7721 204.5 12.7852 205.164 12.7852C208.146 12.7852 210.118 12.2513 211.082 11.1836C212.046 10.1159 212.527 8.98307 212.527 7.78516C212.527 6.43099 212.007 5.31771 210.965 4.44531C209.923 3.57292 208.667 3.13672 207.195 3.13672C204.435 3.13672 202.345 4.55599 200.926 7.39453L198.484 6.02734C200.464 2.47266 203.393 0.695312 207.273 0.695312C209.826 0.695312 211.876 1.39844 213.426 2.80469C214.975 4.19792 215.75 5.85807 215.75 7.78516C215.75 9.28255 215.249 10.6172 214.246 11.7891C213.257 12.9609 211.714 13.7617 209.617 14.1914C211.18 14.569 212.384 15.3763 213.23 16.6133C214.09 17.8503 214.52 19.1719 214.52 20.5781C214.52 22.7526 213.621 24.6471 211.824 26.2617C210.027 27.8763 207.684 28.6836 204.793 28.6836C202.553 28.6836 200.522 28.0977 198.699 26.9258C196.876 25.7409 195.613 24.1003 194.91 22.0039Z" fill="url(#paint0_linear_258_22)"/>
<defs>
<linearGradient id="paint0_linear_258_22" x1="109.5" y1="4" x2="109.5" y2="24" gradientUnits="userSpaceOnUse">
<stop stop-color="#704EF4"/>
<stop offset="1" stop-color="#FF2CDF"/>
</linearGradient>
</defs>
</svg>
