<svg width="24" height="24" viewBox="0 0 24 24" fill="none" xmlns="http://www.w3.org/2000/svg">
<path d="M12.6142 24.0001C9.23547 24.0001 6.06519 22.6905 3.68734 20.3127C1.30948 17.935 2.95424e-07 14.7645 2.95424e-07 11.3857C-0.000504098 9.0548 0.644886 6.76939 1.86453 4.7831C3.08418 2.7968 4.83038 1.18732 6.90931 0.1333C7.12319 0.0242699 7.36445 -0.0193471 7.60297 0.00789332C7.84149 0.0351337 8.0667 0.132025 8.25049 0.286471C8.43429 0.440918 8.56851 0.646078 8.63643 0.876341C8.70434 1.1066 8.70292 1.35177 8.63235 1.58123C8.03912 3.49738 7.98082 5.53922 8.46374 7.4861C8.94666 9.43298 9.95245 11.2109 11.3724 12.6276C12.3914 13.6542 13.6039 14.4685 14.9398 15.0233C16.2756 15.5781 17.7082 15.8625 19.1547 15.8599C20.2612 15.8607 21.3616 15.6947 22.4186 15.3676C22.6481 15.2969 22.8933 15.2955 23.1236 15.3634C23.3539 15.4313 23.5591 15.5655 23.7135 15.7493C23.868 15.9331 23.9649 16.1584 23.9921 16.3969C24.0193 16.6355 23.9757 16.8768 23.8666 17.0906C22.8126 19.1696 21.2031 20.9158 19.2168 22.1355C17.2305 23.3551 14.9451 24.0005 12.6142 24.0001ZM6.86566 1.98859C5.25356 2.96946 3.92188 4.34976 2.99942 5.99598C2.07696 7.6422 1.59496 9.49862 1.60004 11.3857C1.60004 17.459 6.54095 22.4 12.6142 22.4C14.5013 22.4051 16.3577 21.9231 18.004 21.0007C19.6502 20.0782 21.0305 18.7465 22.0114 17.1344C21.0747 17.3512 20.1163 17.4605 19.1548 17.4601C17.4981 17.4632 15.8573 17.1377 14.3273 16.5025C12.7973 15.8672 11.4084 14.9348 10.2412 13.7592C8.72483 12.2457 7.61917 10.3707 7.02856 8.31134C6.43795 6.25193 6.38189 4.07598 6.86566 1.98889V1.98859Z" fill="url(#paint0_linear_199_441)"/>
<defs>
<linearGradient id="paint0_linear_199_441" x1="12" y1="0" x2="12" y2="24.0001" gradientUnits="userSpaceOnUse">
<stop stop-color="#FF2CDF"/>
<stop offset="1" stop-color="#704EF4"/>
</linearGradient>
</defs>
</svg>
