<svg width="116" height="116" viewBox="0 0 116 116" fill="none" xmlns="http://www.w3.org/2000/svg">
    <path
        d="M112.17 11.4907C114.285 9.37523 114.285 5.94534 112.169 3.82996V3.82996C110.054 1.7147 106.624 1.71478 104.509 3.83013L63.6569 44.6822C60.5327 47.8064 55.4673 47.8064 52.3431 44.6822L11.4911 3.83013C9.37571 1.71478 5.94608 1.7147 3.83063 3.82996V3.82996C1.71506 5.94534 1.71499 9.37524 3.83047 11.4907L44.6826 52.3428C47.8068 55.467 47.8068 60.5323 44.6826 63.6565L3.83047 104.509C1.71499 106.624 1.71506 110.054 3.83064 112.169V112.169C5.94608 114.285 9.37571 114.285 11.4911 112.169L52.3432 71.3171C55.4673 68.1929 60.5327 68.1929 63.6569 71.3171L104.509 112.169C106.624 114.285 110.054 114.285 112.169 112.169V112.169C114.285 110.054 114.285 106.624 112.17 104.509L71.3174 63.6565C68.1933 60.5323 68.1933 55.467 71.3175 52.3428L112.17 11.4907Z"
        fill="url(#paint0_linear_248_3)"
    />
    <defs>
        <linearGradient id="paint0_linear_248_3" x1="58" y1="0" x2="58" y2="115.999" gradientUnits="userSpaceOnUse">
            <stop stop-color="#2CFFFF" />
            <stop offset="1" stop-color="#704EF4" />
        </linearGradient>
    </defs>
</svg>
